<mxfile host="Electron" agent="Mozilla/5.0 (X11; Linux x86_64) AppleWebKit/537.36 (KHTML, like Gecko) draw.io/24.7.17 Chrome/128.0.6613.36 Electron/32.0.1 Safari/537.36" version="24.7.17">
  <diagram id="C5RBs43oDa-KdzZeNtuy" name="Page-1">
    <mxGraphModel dx="538" dy="374" grid="1" gridSize="10" guides="1" tooltips="1" connect="1" arrows="1" fold="1" page="1" pageScale="1" pageWidth="827" pageHeight="1169" math="0" shadow="0">
      <root>
        <mxCell id="WIyWlLk6GJQsqaUBKTNV-0" />
        <mxCell id="WIyWlLk6GJQsqaUBKTNV-1" parent="WIyWlLk6GJQsqaUBKTNV-0" />
        <mxCell id="yQACGJgCvoQoLgyyhMiC-0" value="&lt;div&gt;Start&amp;nbsp;&lt;/div&gt;&lt;div&gt;&#39;Ready To Integrate FC&#39;&lt;/div&gt;" style="rounded=1;whiteSpace=wrap;html=1;arcSize=50;" parent="WIyWlLk6GJQsqaUBKTNV-1" vertex="1">
          <mxGeometry x="70" y="20" width="100" height="60" as="geometry" />
        </mxCell>
        <mxCell id="yQACGJgCvoQoLgyyhMiC-1" value="Burn the image to target" style="rounded=1;whiteSpace=wrap;html=1;fontSize=12;glass=0;strokeWidth=1;shadow=0;arcSize=0;" parent="WIyWlLk6GJQsqaUBKTNV-1" vertex="1">
          <mxGeometry x="60" y="120" width="120" height="40" as="geometry" />
        </mxCell>
        <mxCell id="yQACGJgCvoQoLgyyhMiC-2" value="" style="rounded=0;html=1;jettySize=auto;orthogonalLoop=1;fontSize=11;endArrow=block;endFill=0;endSize=8;strokeWidth=1;shadow=0;labelBackgroundColor=none;edgeStyle=orthogonalEdgeStyle;exitX=0.5;exitY=1;exitDx=0;exitDy=0;" parent="WIyWlLk6GJQsqaUBKTNV-1" source="yQACGJgCvoQoLgyyhMiC-0" target="yQACGJgCvoQoLgyyhMiC-1" edge="1">
          <mxGeometry relative="1" as="geometry">
            <mxPoint x="210" y="70" as="sourcePoint" />
            <mxPoint x="210" y="120" as="targetPoint" />
          </mxGeometry>
        </mxCell>
        <mxCell id="mMFdWdoxtDHpCLUdpBhw-2" value="" style="edgeStyle=orthogonalEdgeStyle;rounded=0;orthogonalLoop=1;jettySize=auto;html=1;exitX=0.5;exitY=1;exitDx=0;exitDy=0;" parent="WIyWlLk6GJQsqaUBKTNV-1" source="w9jdaCenqPGWddk09s0K-5" target="yQACGJgCvoQoLgyyhMiC-4" edge="1">
          <mxGeometry relative="1" as="geometry">
            <mxPoint x="120" y="330" as="sourcePoint" />
          </mxGeometry>
        </mxCell>
        <mxCell id="yQACGJgCvoQoLgyyhMiC-4" value="Register the static IP in the assets database" style="rounded=1;whiteSpace=wrap;html=1;fontSize=12;glass=0;strokeWidth=1;shadow=0;arcSize=0;" parent="WIyWlLk6GJQsqaUBKTNV-1" vertex="1">
          <mxGeometry x="60" y="370" width="120" height="50" as="geometry" />
        </mxCell>
        <mxCell id="yQACGJgCvoQoLgyyhMiC-6" value="Use hear-cli program &#39;y&#39; to copy latest FC and configurations release" style="rounded=1;whiteSpace=wrap;html=1;fontSize=12;glass=0;strokeWidth=1;shadow=0;arcSize=0;" parent="WIyWlLk6GJQsqaUBKTNV-1" vertex="1">
          <mxGeometry x="60" y="450" width="120" height="70" as="geometry" />
        </mxCell>
        <mxCell id="yQACGJgCvoQoLgyyhMiC-7" value="Install the latest PX4 firmware" style="rounded=1;whiteSpace=wrap;html=1;fontSize=12;glass=0;strokeWidth=1;shadow=0;arcSize=0;" parent="WIyWlLk6GJQsqaUBKTNV-1" vertex="1">
          <mxGeometry x="60" y="550" width="120" height="50" as="geometry" />
        </mxCell>
        <mxCell id="w9jdaCenqPGWddk09s0K-8" style="edgeStyle=orthogonalEdgeStyle;rounded=0;orthogonalLoop=1;jettySize=auto;html=1;exitX=0.5;exitY=1;exitDx=0;exitDy=0;entryX=0.5;entryY=0;entryDx=0;entryDy=0;" edge="1" parent="WIyWlLk6GJQsqaUBKTNV-1" source="yQACGJgCvoQoLgyyhMiC-8" target="yQACGJgCvoQoLgyyhMiC-9">
          <mxGeometry relative="1" as="geometry" />
        </mxCell>
        <mxCell id="yQACGJgCvoQoLgyyhMiC-8" value="Update the SYS_AUTOSTART parameter*" style="rounded=1;whiteSpace=wrap;html=1;fontSize=12;glass=0;strokeWidth=1;shadow=0;arcSize=0;" parent="WIyWlLk6GJQsqaUBKTNV-1" vertex="1">
          <mxGeometry x="60" y="630" width="120" height="50" as="geometry" />
        </mxCell>
        <mxCell id="yQACGJgCvoQoLgyyhMiC-9" value="Print PX4 rev and autostart parameter, and stick them to Pixhawk hardware" style="rounded=1;whiteSpace=wrap;html=1;fontSize=12;glass=0;strokeWidth=1;shadow=0;arcSize=0;" parent="WIyWlLk6GJQsqaUBKTNV-1" vertex="1">
          <mxGeometry x="60" y="710" width="120" height="70" as="geometry" />
        </mxCell>
        <mxCell id="w9jdaCenqPGWddk09s0K-10" style="edgeStyle=orthogonalEdgeStyle;rounded=0;orthogonalLoop=1;jettySize=auto;html=1;exitX=0.5;exitY=1;exitDx=0;exitDy=0;entryX=0.5;entryY=0;entryDx=0;entryDy=0;" edge="1" parent="WIyWlLk6GJQsqaUBKTNV-1" source="yQACGJgCvoQoLgyyhMiC-10" target="yQACGJgCvoQoLgyyhMiC-11">
          <mxGeometry relative="1" as="geometry" />
        </mxCell>
        <mxCell id="yQACGJgCvoQoLgyyhMiC-10" value="Print date and commissioner name and stick them to Carrier hardware" style="rounded=1;whiteSpace=wrap;html=1;fontSize=12;glass=0;strokeWidth=1;shadow=0;arcSize=0;" parent="WIyWlLk6GJQsqaUBKTNV-1" vertex="1">
          <mxGeometry x="60" y="810" width="120" height="70" as="geometry" />
        </mxCell>
        <mxCell id="w9jdaCenqPGWddk09s0K-11" style="edgeStyle=orthogonalEdgeStyle;rounded=0;orthogonalLoop=1;jettySize=auto;html=1;exitX=0.5;exitY=1;exitDx=0;exitDy=0;entryX=0.5;entryY=0;entryDx=0;entryDy=0;" edge="1" parent="WIyWlLk6GJQsqaUBKTNV-1" source="yQACGJgCvoQoLgyyhMiC-11" target="yQACGJgCvoQoLgyyhMiC-15">
          <mxGeometry relative="1" as="geometry" />
        </mxCell>
        <mxCell id="yQACGJgCvoQoLgyyhMiC-11" value="Place the FC hardware in the &#39;ready to integrate&#39; box" style="rounded=1;whiteSpace=wrap;html=1;fontSize=12;glass=0;strokeWidth=1;shadow=0;arcSize=0;" parent="WIyWlLk6GJQsqaUBKTNV-1" vertex="1">
          <mxGeometry x="60" y="910" width="120" height="70" as="geometry" />
        </mxCell>
        <mxCell id="yQACGJgCvoQoLgyyhMiC-12" value="&lt;div&gt;* https://discuss.px4.io/t/methods-of-setting-default-parameters/3498,&lt;/div&gt;&lt;div&gt;https://docs.px4.io/main/en/advanced/parameters_and_configurations.html,&lt;br&gt;&lt;/div&gt;&lt;div&gt;check other methods for doing this effectively&lt;/div&gt;" style="text;html=1;align=left;verticalAlign=middle;resizable=0;points=[];autosize=1;strokeColor=none;fillColor=none;" parent="WIyWlLk6GJQsqaUBKTNV-1" vertex="1">
          <mxGeometry x="10" y="1100" width="420" height="60" as="geometry" />
        </mxCell>
        <mxCell id="yQACGJgCvoQoLgyyhMiC-15" value="Finish" style="rounded=1;whiteSpace=wrap;html=1;arcSize=50;" parent="WIyWlLk6GJQsqaUBKTNV-1" vertex="1">
          <mxGeometry x="70" y="1010" width="100" height="40" as="geometry" />
        </mxCell>
        <mxCell id="mMFdWdoxtDHpCLUdpBhw-0" value="" style="rounded=0;html=1;jettySize=auto;orthogonalLoop=1;fontSize=11;endArrow=block;endFill=0;endSize=8;strokeWidth=1;shadow=0;labelBackgroundColor=none;edgeStyle=orthogonalEdgeStyle;exitX=0.5;exitY=1;exitDx=0;exitDy=0;entryX=0.5;entryY=0;entryDx=0;entryDy=0;" parent="WIyWlLk6GJQsqaUBKTNV-1" source="yQACGJgCvoQoLgyyhMiC-1" edge="1">
          <mxGeometry relative="1" as="geometry">
            <mxPoint x="200" y="175" as="sourcePoint" />
            <mxPoint x="120" y="200" as="targetPoint" />
          </mxGeometry>
        </mxCell>
        <mxCell id="w9jdaCenqPGWddk09s0K-0" value="" style="rounded=0;html=1;jettySize=auto;orthogonalLoop=1;fontSize=11;endArrow=block;endFill=0;endSize=8;strokeWidth=1;shadow=0;labelBackgroundColor=none;edgeStyle=orthogonalEdgeStyle;exitX=0.5;exitY=1;exitDx=0;exitDy=0;entryX=0.5;entryY=0;entryDx=0;entryDy=0;" edge="1" parent="WIyWlLk6GJQsqaUBKTNV-1" source="yQACGJgCvoQoLgyyhMiC-4" target="yQACGJgCvoQoLgyyhMiC-6">
          <mxGeometry relative="1" as="geometry">
            <mxPoint x="130" y="250" as="sourcePoint" />
            <mxPoint x="120" y="370" as="targetPoint" />
          </mxGeometry>
        </mxCell>
        <mxCell id="w9jdaCenqPGWddk09s0K-3" value="" style="edgeStyle=orthogonalEdgeStyle;rounded=0;orthogonalLoop=1;jettySize=auto;html=1;exitX=0.5;exitY=1;exitDx=0;exitDy=0;entryX=0.5;entryY=0;entryDx=0;entryDy=0;" edge="1" parent="WIyWlLk6GJQsqaUBKTNV-1" source="w9jdaCenqPGWddk09s0K-4" target="w9jdaCenqPGWddk09s0K-5">
          <mxGeometry relative="1" as="geometry">
            <mxPoint x="120" y="250" as="sourcePoint" />
            <mxPoint x="170" y="280" as="targetPoint" />
          </mxGeometry>
        </mxCell>
        <mxCell id="w9jdaCenqPGWddk09s0K-4" value="Connect to target via LAN and assign static IP" style="rounded=1;whiteSpace=wrap;html=1;fontSize=12;glass=0;strokeWidth=1;shadow=0;arcSize=0;" vertex="1" parent="WIyWlLk6GJQsqaUBKTNV-1">
          <mxGeometry x="60" y="200" width="120" height="40" as="geometry" />
        </mxCell>
        <mxCell id="w9jdaCenqPGWddk09s0K-5" value="Use hear-cli program &#39;x&#39; to complete the installation" style="rounded=1;whiteSpace=wrap;html=1;fontSize=12;glass=0;strokeWidth=1;shadow=0;arcSize=0;" vertex="1" parent="WIyWlLk6GJQsqaUBKTNV-1">
          <mxGeometry x="60" y="280" width="120" height="50" as="geometry" />
        </mxCell>
        <mxCell id="w9jdaCenqPGWddk09s0K-6" value="" style="rounded=0;html=1;jettySize=auto;orthogonalLoop=1;fontSize=11;endArrow=block;endFill=0;endSize=8;strokeWidth=1;shadow=0;labelBackgroundColor=none;edgeStyle=orthogonalEdgeStyle;exitX=0.5;exitY=1;exitDx=0;exitDy=0;entryX=0.5;entryY=0;entryDx=0;entryDy=0;" edge="1" parent="WIyWlLk6GJQsqaUBKTNV-1" source="yQACGJgCvoQoLgyyhMiC-6" target="yQACGJgCvoQoLgyyhMiC-7">
          <mxGeometry relative="1" as="geometry">
            <mxPoint x="130" y="430" as="sourcePoint" />
            <mxPoint x="130" y="460" as="targetPoint" />
          </mxGeometry>
        </mxCell>
        <mxCell id="w9jdaCenqPGWddk09s0K-7" value="" style="rounded=0;html=1;jettySize=auto;orthogonalLoop=1;fontSize=11;endArrow=block;endFill=0;endSize=8;strokeWidth=1;shadow=0;labelBackgroundColor=none;edgeStyle=orthogonalEdgeStyle;exitX=0.5;exitY=1;exitDx=0;exitDy=0;entryX=0.5;entryY=0;entryDx=0;entryDy=0;" edge="1" parent="WIyWlLk6GJQsqaUBKTNV-1" source="yQACGJgCvoQoLgyyhMiC-7" target="yQACGJgCvoQoLgyyhMiC-8">
          <mxGeometry relative="1" as="geometry">
            <mxPoint x="130" y="530" as="sourcePoint" />
            <mxPoint x="130" y="560" as="targetPoint" />
          </mxGeometry>
        </mxCell>
        <mxCell id="w9jdaCenqPGWddk09s0K-9" style="edgeStyle=orthogonalEdgeStyle;rounded=0;orthogonalLoop=1;jettySize=auto;html=1;exitX=0.5;exitY=1;exitDx=0;exitDy=0;entryX=0.5;entryY=0;entryDx=0;entryDy=0;" edge="1" parent="WIyWlLk6GJQsqaUBKTNV-1" source="yQACGJgCvoQoLgyyhMiC-9" target="yQACGJgCvoQoLgyyhMiC-10">
          <mxGeometry relative="1" as="geometry">
            <mxPoint x="130" y="690" as="sourcePoint" />
            <mxPoint x="130" y="720" as="targetPoint" />
          </mxGeometry>
        </mxCell>
      </root>
    </mxGraphModel>
  </diagram>
</mxfile>
